<svg width="44" height="44" viewBox="0 0 44 44" fill="none" xmlns="http://www.w3.org/2000/svg">
    <circle cx="22" cy="22" r="22" fill="#5550A1" fill-opacity="0.5"/>
    <path d="M13.7338 22.4082C13.8422 22.2909 13.8185 22.1516 13.8367 22.024C13.9055 21.5517 13.9458 21.0706 14.0463 20.6069C14.4932 18.5222 15.8222 17.2373 17.8149 16.5917C18.7207 16.2989 19.6454 16.3501 20.5607 16.5776C20.8645 16.6517 21.1633 16.7448 21.4554 16.8563C22.0422 17.0936 22.699 17.0936 23.2859 16.8563C23.7774 16.6565 24.2897 16.5118 24.8134 16.4248C26.5538 16.1611 28.0837 16.5823 29.3763 17.7892C29.7523 18.1448 30.0826 18.5455 30.3596 18.982C30.786 19.6441 30.9782 20.3802 31.0264 21.1565C31.0438 21.4304 31.0328 21.7076 31.0359 21.9823C31.0359 22.1122 31.0438 22.2413 31.0478 22.3516C31.0602 22.3637 31.075 22.3732 31.0912 22.3795C31.1074 22.3858 31.1247 22.3888 31.1421 22.3882C31.1595 22.3876 31.1766 22.3835 31.1923 22.3761C31.2081 22.3687 31.2222 22.3582 31.2337 22.3453C31.2992 22.2934 31.3579 22.2336 31.4085 22.1673C32.0414 21.2745 32.6173 20.3487 33.0357 19.3331C33.3711 18.5365 33.5806 17.693 33.6567 16.8327C33.7066 16.2485 33.7904 15.6675 33.8616 15.0849C33.875 15.002 33.8951 14.9204 33.9217 14.8408C34.0697 14.3236 34.5475 13.8118 35.3021 13.8543C35.6166 13.8718 35.9169 13.9905 36.1578 14.1926C36.3986 14.3946 36.5669 14.6691 36.6374 14.9747C36.6555 15.0689 36.6645 15.1645 36.6643 15.2604C36.696 17.0901 36.4057 18.8647 35.7246 20.5676C34.9938 22.3996 33.8987 24.0657 32.5049 25.4661C31.8622 26.117 31.1268 26.6703 30.3224 27.1084C30.059 27.2528 29.8046 27.4129 29.5606 27.5878C28.9378 28.029 28.4625 28.6461 28.196 29.3592C28.093 29.6157 28.0072 29.8787 27.9389 30.1465C27.5181 31.9195 26.4509 33.2075 24.906 34.1255C23.7004 34.8419 22.3849 35.2166 20.9784 35.1489C17.8822 35.0025 15.2258 33.2272 14.2267 30.2268C13.992 29.4944 13.8711 28.7305 13.8683 27.9618C13.8658 27.6746 13.8393 27.3881 13.7892 27.1052C13.7478 26.855 13.6545 26.6162 13.5151 26.4039C13.3758 26.1916 13.1935 26.0106 12.9799 25.8723C12.3827 25.4826 11.9302 24.9622 11.5062 24.4072C11.2728 24.1025 11.026 23.8065 10.8014 23.4963C9.78235 22.0802 9.04549 20.4828 8.63068 18.7906C8.46377 18.1293 8.33325 17.4586 8.213 16.787C8.1322 16.301 8.12687 15.8055 8.19718 15.3179C8.22624 15.0917 8.29449 14.8722 8.3989 14.6692C8.47366 14.5181 8.57912 14.3841 8.70862 14.2757C8.83812 14.1673 8.98883 14.0868 9.1512 14.0394C9.48605 13.9327 9.84422 13.9215 10.1851 14.0071C10.3498 14.0453 10.5037 14.12 10.6353 14.2256C10.767 14.3313 10.8729 14.4651 10.9453 14.6172C11.0718 14.8767 11.144 15.159 11.1573 15.447C11.174 15.7218 11.1795 15.9981 11.1977 16.2721C11.2633 17.2499 11.5307 18.1805 11.8677 19.0938C12.2403 20.12 12.7354 21.0979 13.3423 22.0067C13.4253 22.1237 13.5165 22.2347 13.6152 22.339C13.6506 22.3684 13.6907 22.3918 13.7338 22.4082ZM28.5314 22.6854C28.673 22.3279 28.7862 22.0028 28.76 21.6517C28.6651 20.3707 28.0346 19.4331 26.8742 18.8828C25.8394 18.3915 24.8174 18.4631 23.8555 19.1001C22.8271 19.7795 22.3192 20.7612 22.2219 21.9603C22.176 22.5318 22.1792 23.1089 22.1768 23.6836C22.1768 24.2938 22.1982 24.9047 22.2014 25.5157C22.2021 25.6708 22.1856 25.8255 22.1523 25.977C22.1266 26.12 22.0573 26.2517 21.9539 26.3542C21.8504 26.4568 21.7178 26.5252 21.574 26.5502C21.2675 26.6166 20.9519 26.6307 20.6406 26.5919C20.5194 26.5792 20.4053 26.5289 20.3144 26.4481C20.2235 26.3672 20.1605 26.26 20.1343 26.1416C20.1148 26.0721 20.1023 26.0009 20.0971 25.929C20.0679 25.607 20.0323 25.2858 20.018 24.963C19.9626 23.8986 19.8891 22.8373 19.9698 21.7682C20.015 20.9889 20.199 20.2238 20.5132 19.5087C20.5513 19.4338 20.5836 19.3562 20.6097 19.2764C20.6417 19.1907 20.6391 19.0959 20.6023 19.0121C20.5656 18.9283 20.4976 18.8619 20.4128 18.8269C20.3494 18.7925 20.2811 18.768 20.2103 18.7544C19.9381 18.7072 19.666 18.6576 19.3915 18.6285C19.1264 18.6088 18.8602 18.6447 18.6099 18.734C17.0879 19.2174 16.0785 20.5833 16.1205 22.1445C16.1387 22.8271 16.1323 23.5097 16.13 24.1914C16.126 25.4251 16.1165 26.6588 16.1086 27.8917C16.1007 28.9152 16.3586 29.8599 16.9669 30.6937C17.5456 31.4969 18.3298 32.1313 19.238 32.5312C19.8758 32.8229 20.5773 32.9497 21.2774 32.8997C22.1108 32.8349 22.9096 32.5401 23.5841 32.0486C24.8498 31.1432 25.6314 29.9497 25.7746 28.3735C25.8244 27.835 25.8276 27.2973 25.83 26.7588C25.8347 25.2624 25.8405 23.7666 25.8474 22.2713C25.8492 22.1161 25.8654 21.9614 25.8956 21.8091C25.9153 21.7022 25.9585 21.601 26.0221 21.5126C26.0856 21.4243 26.1681 21.3511 26.2635 21.2982C27.2127 20.7471 28.0615 21.2982 28.2728 22.0288C28.3226 22.2012 28.378 22.372 28.4357 22.5413C28.4626 22.5915 28.4946 22.6387 28.5314 22.6822V22.6854Z" fill="white"/>
</svg>
