<svg width="29" height="23" viewBox="0 0 29 23" fill="none" xmlns="http://www.w3.org/2000/svg">
    <path d="M5.73384 9.40822C5.84222 9.29092 5.81849 9.15157 5.83668 9.02403C5.9055 8.55165 5.94585 8.07062 6.04631 7.60691C6.49326 5.52216 7.82225 4.23731 9.81493 3.59173C10.7207 3.29886 11.6454 3.35003 12.5607 3.57756C12.8645 3.65172 13.1633 3.74481 13.4554 3.85626C14.0423 4.09363 14.699 4.09363 15.2859 3.85626C15.7774 3.65647 16.2898 3.51176 16.8135 3.42483C18.5538 3.16109 20.0837 3.58229 21.3763 4.7892C21.7523 5.14481 22.0826 5.54545 22.3596 5.98194C22.786 6.64405 22.9782 7.38017 23.0265 8.15643C23.0439 8.43041 23.0328 8.70754 23.036 8.9823C23.036 9.1122 23.0439 9.24132 23.0478 9.35154C23.0602 9.3637 23.075 9.37322 23.0912 9.37951C23.1074 9.38581 23.1247 9.38875 23.1421 9.38816C23.1595 9.38757 23.1766 9.38346 23.1924 9.37608C23.2081 9.3687 23.2222 9.35821 23.2337 9.34524C23.2992 9.29337 23.3579 9.2336 23.4085 9.16731C24.0414 8.27453 24.6173 7.34868 25.0358 6.33307C25.3711 5.53648 25.5806 4.69301 25.6567 3.83264C25.7066 3.24847 25.7904 2.66745 25.8616 2.08486C25.875 2.00203 25.8951 1.92041 25.9217 1.8408C26.0697 1.32355 26.5475 0.811815 27.3021 0.854329C27.6167 0.871804 27.9169 0.99051 28.1578 1.19257C28.3986 1.39463 28.567 1.6691 28.6375 1.97464C28.6555 2.06884 28.6645 2.16453 28.6644 2.26043C28.696 4.09009 28.4057 5.86464 27.7246 7.56754C26.9938 9.39954 25.8987 11.0657 24.505 12.4661C23.8622 13.1169 23.1268 13.6703 22.3224 14.1083C22.059 14.2528 21.8046 14.4129 21.5606 14.5878C20.9378 15.029 20.4625 15.6461 20.196 16.3592C20.0931 16.6157 20.0072 16.8787 19.9389 17.1465C19.5181 18.9195 18.451 20.2075 16.906 21.1254C15.7004 21.8419 14.3849 22.2166 12.9784 22.1489C9.88217 22.0025 7.22578 20.2271 6.22667 17.2268C5.992 16.4944 5.87116 15.7305 5.86832 14.9618C5.86579 14.6746 5.83933 14.388 5.78922 14.1052C5.74783 13.855 5.65449 13.6161 5.51515 13.4039C5.37582 13.1916 5.19354 13.0105 4.97996 12.8723C4.38271 12.4826 3.93022 11.9622 3.50621 11.4072C3.27285 11.1025 3.02604 10.8064 2.80138 10.4963C1.78236 9.08016 1.04551 7.4828 0.6307 5.79063C0.463786 5.12931 0.33326 4.45854 0.213019 3.78698C0.132219 3.30098 0.126883 2.80551 0.197198 2.3179C0.226259 2.09168 0.29451 1.87219 0.398919 1.66917C0.473671 1.51808 0.579135 1.38408 0.708634 1.27566C0.838133 1.16724 0.988843 1.08677 1.15122 1.03934C1.48606 0.932677 1.84423 0.921494 2.18514 1.00706C2.34983 1.04526 2.50373 1.11997 2.63536 1.22561C2.76699 1.33126 2.87295 1.46512 2.94535 1.61721C3.07184 1.87664 3.14397 2.15897 3.15735 2.44701C3.17397 2.72178 3.1795 2.99812 3.1977 3.27209C3.26335 4.24991 3.53073 5.18048 3.86773 6.09374C4.24036 7.11995 4.73541 8.09793 5.34227 9.00671C5.42528 9.12369 5.51648 9.23471 5.61518 9.33894C5.65066 9.36833 5.69075 9.39174 5.73384 9.40822ZM20.5314 9.68535C20.673 9.32792 20.7862 9.00277 20.7601 8.65164C20.6651 7.37072 20.0347 6.43306 18.8742 5.88274C17.8395 5.39148 16.8174 5.46312 15.8555 6.10003C14.8271 6.77947 14.3192 7.76121 14.2219 8.96026C14.1761 9.53183 14.1792 10.1089 14.1768 10.6836C14.1768 11.2938 14.1982 11.9047 14.2014 12.5157C14.2021 12.6708 14.1856 12.8255 14.1523 12.977C14.1266 13.12 14.0573 13.2517 13.9539 13.3542C13.8505 13.4567 13.7179 13.5251 13.5741 13.5501C13.2675 13.6166 12.9519 13.6307 12.6406 13.5919C12.5194 13.5792 12.4053 13.5289 12.3144 13.448C12.2236 13.3672 12.1606 13.26 12.1343 13.1415C12.1148 13.0721 12.1023 13.0009 12.0971 12.929C12.0679 12.607 12.0323 12.2858 12.018 11.963C11.9627 10.8986 11.8891 9.8373 11.9698 8.76816C12.015 7.98889 12.199 7.22382 12.5132 6.50864C12.5513 6.43379 12.5836 6.35615 12.6098 6.27639C12.6417 6.19065 12.6391 6.09592 12.6023 6.01209C12.5656 5.92826 12.4977 5.86187 12.4128 5.82685C12.3494 5.79244 12.2811 5.768 12.2103 5.75442C11.9381 5.70718 11.666 5.65758 11.3915 5.62845C11.1264 5.60878 10.8602 5.64472 10.6099 5.73395C9.08794 6.21734 8.07855 7.58329 8.12048 9.14448C8.13867 9.82706 8.13234 10.5096 8.12997 11.1914C8.12601 12.4251 8.11652 13.6588 8.10861 14.8917C8.1007 15.9152 8.35859 16.8599 8.96691 17.6937C9.54565 18.4969 10.3298 19.1313 11.2381 19.5312C11.8758 19.8229 12.5773 19.9496 13.2774 19.8996C14.1109 19.8348 14.9097 19.5401 15.5841 19.0486C16.8498 18.1432 17.6314 16.9497 17.7746 15.3735C17.8244 14.835 17.8276 14.2973 17.83 13.7588C17.8347 12.2624 17.8405 10.7666 17.8474 9.27124C17.8492 9.11604 17.8654 8.96135 17.8956 8.8091C17.9153 8.70221 17.9585 8.60096 18.0221 8.51263C18.0857 8.42429 18.1681 8.35105 18.2635 8.29815C19.2127 7.74704 20.0616 8.29815 20.2728 9.02875C20.3226 9.20117 20.378 9.37201 20.4357 9.54128C20.4626 9.59147 20.4947 9.6387 20.5314 9.6822V9.68535Z" fill="white"/>
</svg>
