<?xml version="1.0" encoding="utf-8"?>
<!-- Generator: Adobe Illustrator 25.2.3, SVG Export Plug-In . SVG Version: 6.00 Build 0)  -->
<svg version="1.1" xmlns="http://www.w3.org/2000/svg" xmlns:xlink="http://www.w3.org/1999/xlink" x="0px" y="0px"
	 viewBox="0 0 170.1 255.1" style="enable-background:new 0 0 170.1 255.1;" xml:space="preserve">
<style type="text/css">
	.st0{fill:none;stroke:#FFFFFF;stroke-width:2.8346;stroke-miterlimit:10;}
	.st1{fill:none;stroke:#FFFFFF;stroke-width:0.5669;stroke-miterlimit:10;}
</style>
<g id="background">
</g>
<g id="trainer">
	<g>
		<path class="st0" d="M157.1,160.8c-6.4-20.2-13.8-39.7-27.6-49.7c-7.9-5.7-15-10.3-23.2-13.2V73h14.2c19.6,0,35.4-15.9,35.4-35.4
			v0c0-19.6-15.9-35.4-35.4-35.4H49.6C30,2.1,14.2,18,14.2,37.5v0C14.2,57.1,30,73,49.6,73h14.2v24.9c-8.2,2.9-15.4,7.5-23.2,13.2
			c-13.8,9.9-21.2,29.5-27.6,49.7c-6.4,20.2-9.3,47.3-9,53.5c0.9,15.9,0.5,26.1,2.2,28.8c3,4.8,8.5,6.2,17.6,8.3
			c3.8,0.9,11.7,2.7,21.2,0.6c3.9-0.8,4.4-1.5,9-2.9c5.2-1.6,20.7-14.6,29.6-14.5l3.1,0c8.9-0.1,24.3,12.9,29.6,14.5
			c4.5,1.4,5.1,2.1,9,2.9c9.5,2,17.3,0.3,21.2-0.6c9.1-2.2,14.7-3.5,17.6-8.3c1.6-2.7,1.3-12.9,2.2-28.8
			C166.4,208.1,163.5,181,157.1,160.8z"/>
		<g>
			<g>
				<path class="st1" d="M33.5,134.5c0,0-7.1,1.4-7.1,7.9c0,6.5-0.6,8.7,2,9.7c2.6,1,5.7,1.8,11.5,2c5.9,0.2,8.3-1.8,9.1-4
					c0.8-2.2,0.2-7.3-1.8-8.7C45.2,139.8,33.5,134.5,33.5,134.5z"/>
				<path class="st1" d="M36.3,120.9c-2.2,4-2,8.9-1.4,13.1c0,0,0.4,0.4,2.4,1.2c2,0.8,3.8,2,3.8,2s2.6,1.4,5.1,0
					c2.4-1.4,11.9-3.2,5.9-14.4C46,111.4,36.3,120.9,36.3,120.9z"/>
				<path class="st1" d="M47.6,114.3c0,0,8.7-7.3,12.7-8.7c2.2-0.8,2.2,1.8,2.8,3c0.8,1.6,1.4,4.4,1.4,4.4s0.4,6.1,0,6.9
					c-0.4,0.8-2.4,3-5.5,3s-7.5-2-8.1-2.6C50.8,119.5,47,117.7,47.6,114.3z"/>
				<path class="st1" d="M20.3,157.1c0,0-0.6,7.7,0.8,9.5c1.4,1.8,0.6,3,6.1,4.4c5.5,1.4,8.3,0.6,8.3,0.6s5.3-1,5.5-6.1
					c0.2-5.1,0.8-4.4-2.4-7.3c-3.2-2.8-9.9-5.3-9.9-5.3S24.2,150.1,20.3,157.1z"/>
				<path class="st1" d="M13.2,177c0,0,0.4-4.4,5.7-4.9c5.3-0.2,5.5-1.6,11.1,1c5.5,2.6,8.1,5.3,8.1,5.3s3.4,3.2,1.6,9.5
					c-1.8,6.1-0.2,7.5-4.2,10.7c-4,3.2-8.9,1.6-8.9,1.6s-6.7-1.2-8.9-3.6c-2.4-2.4-3.8-2.2-4.2-7.5C12.8,183.8,13.2,177,13.2,177z"
					/>
				<path class="st1" d="M10.6,201.6c0,0,2.4-4.4,4.7-4.7c2.2-0.2,5.1,2.4,5.1,2.4s5.7,2,8.3,3c2.6,1,6.1,3.2,6.7,5.5
					c0.4,2.2,0.6,4.4-0.4,6.7c-1.2,2.4-1.2,1.8-2,4.7c-0.6,2.8-7.1,5.5-7.1,5.5s-6.1,0.2-9.9-3.2c-3.8-3.4-4.4-4.4-4.9-8.9
					C10.2,207.7,10.6,201.6,10.6,201.6z"/>
				<path class="st1" d="M8.8,225.7c0,0,1-3.4,4.2-3.2c3.2,0.2,5.9,2.2,9.3,3c3.4,0.8,7.1,5.5,7.1,5.5s3,2.8,1.8,7.7
					c-1.4,5.5-0.6,6.7-5.7,7.1c-5.1,0.4-9.1-0.4-12.3-3.2C10,239.6,9,232.4,9,232.4v-6.7H8.8z"/>
				<path class="st1" d="M63.2,106.6c-0.6-2.2-1.6-3.2,1.6-4.4c3.4-1.2,7.1-3.4,16.6-3.6c2.4,0,2.6,1.4,2.8,4c0,0,1.2,6.7-0.4,8.7
					c-1.6,2.2-2.2,4.7-6.3,6.1c-4,1.2-3.4,0.8-5.7,0c-3.6-1.2-5.9-2.4-7.1-5.7C63.6,107.8,63.8,108.8,63.2,106.6z"/>
			</g>
			<g>
				<path class="st1" d="M122.9,141.4c-2,1.4-2.6,6.5-1.8,8.7c0.8,2.2,3.2,4.2,9.1,4c5.9-0.2,8.9-1,11.5-2c2.6-1,2-3.2,2-9.7
					c0-6.5-7.1-7.9-7.1-7.9S124.9,139.8,122.9,141.4z"/>
				<path class="st1" d="M118,123c-6.1,11.1,3.4,12.9,5.9,14.4c2.4,1.4,5.1,0,5.1,0s1.8-1.2,3.8-2s2.4-1.2,2.4-1.2
					c0.6-4.2,0.8-9.1-1.4-13.1C133.8,120.9,124.1,111.4,118,123z"/>
				<path class="st1" d="M119,120.3c-0.6,0.6-5.1,2.6-8.1,2.6c-3,0-5.1-2.2-5.5-3c-0.4-0.8,0-6.9,0-6.9s0.6-2.8,1.4-4.4
					c0.6-1.2,0.6-3.8,2.8-3c4,1.4,12.7,8.7,12.7,8.7C123.1,117.7,119.2,119.5,119,120.3z"/>
				<path class="st1" d="M141.5,153.1c0,0-6.7,2.4-9.9,5.3c-3.2,2.8-2.6,2.2-2.4,7.3s5.5,6.1,5.5,6.1s2.8,0.8,8.3-0.6
					c5.5-1.4,4.7-2.6,6.1-4.4c1.4-1.8,0.8-9.5,0.8-9.5C145.9,150.1,141.5,153.1,141.5,153.1z"/>
				<path class="st1" d="M156.6,189.1c-0.4,5.3-1.8,5.1-4.2,7.5c-2.2,2.4-8.9,3.6-8.9,3.6s-4.9,1.6-8.9-1.6c-4-3.2-2.4-4.7-4.2-10.7
					c-1.8-6.3,1.6-9.5,1.6-9.5s2.6-2.6,8.1-5.3c5.7-2.6,5.9-1.2,11.1-1c5.3,0.4,5.7,4.9,5.7,4.9S157.2,183.8,156.6,189.1z"/>
				<path class="st1" d="M159.1,212.5c-0.4,4.4-1,5.5-4.9,8.9c-3.8,3.4-9.9,3.2-9.9,3.2s-6.5-2.6-7.1-5.5c-0.8-2.8-0.8-2.2-2-4.7
					c-1-2.2-0.8-4.4-0.4-6.7c0.6-2.2,4-4.4,6.7-5.5c2.6-1,8.3-3,8.3-3s2.8-2.6,5.1-2.4c2.2,0.2,4.7,4.7,4.7,4.7
					S159.9,207.7,159.1,212.5z"/>
				<path class="st1" d="M161.1,225.7v6.7c0,0-1,7.3-4.2,10.1c-3.2,2.8-7.3,3.6-12.3,3.2c-5.1-0.4-4.2-1.6-5.7-7.1
					c-1.2-4.9,1.8-7.7,1.8-7.7s3.6-4.7,7.1-5.5c3.4-0.8,6.1-2.8,9.3-3c3.2-0.2,4.2,3.2,4.2,3.2H161.1z"/>
				<path class="st1" d="M105.3,111.6c-1.2,3.2-3.4,4.4-7.1,5.7c-2.2,0.8-1.6,1.2-5.7,0c-4-1.4-4.7-3.8-6.3-6.1
					c-1.6-2-0.4-8.7-0.4-8.7c0.2-2.6,0.4-4,2.8-4c9.5,0.2,13.1,2.4,16.6,3.6c3.2,1.2,2.2,2.2,1.6,4.4
					C106.3,108.8,106.5,107.8,105.3,111.6z"/>
			</g>
		</g>
	</g>
</g>
</svg>
